<?xml version="1.0" encoding="UTF-8"?>
<svg id="Layer_2" data-name="Layer 2" xmlns="http://www.w3.org/2000/svg" viewBox="0 0 96.57 68.51">
  <defs>
    <style>
      .cls-1 {
        fill: #f26454;
      }

      .cls-2 {
        fill: #7abbe7;
      }

      .cls-3 {
        fill: #fff;
      }

      .cls-4 {
        fill: #ee3424;
      }

      .cls-5 {
        fill: #3d89c9;
      }
    </style>
  </defs>
  <g id="Layer_1-2" data-name="Layer 1">
    <path class="cls-5" d="M46.16,53.92c-1.37,0-2.71-.27-3.86-.88-.55-.27-.85-.73-.85-1.28,0-.18.09-.64.18-.94l.49-1.95c.18-.79.61-1.22,1.25-1.22.4,0,1.06.24,1.7.24.7,0,.97-.49.97-1,0-.33-.09-.67-.33-.88-2.07-1.85-3.77-4.62-3.77-7.27,0-5.29,3.44-8.12,8.24-8.12,1.28,0,2.31.15,3.13.46.67.24,1.03.7,1.03,1.34,0,.18-.06.58-.12.91l-.3,1.85c-.15.85-.58,1.31-1.25,1.31-.36,0-.91-.21-1.4-.21-.67,0-1,.52-1,1,0,.3.09.58.3.79,2.01,2.19,4.13,4.14,4.13,7.69,0,4.74-3.74,8.15-8.54,8.15Z"/>
    <path class="cls-5" d="M74.95,53.43h-4.56c-1,0-1.52-.52-1.52-1.52v-8.42h-4.59v8.42c0,1-.52,1.52-1.52,1.52h-4.56c-1,0-1.52-.52-1.52-1.52v-19.28c0-1,.52-1.52,1.52-1.52h4.56c1,0,1.52.52,1.52,1.52v6.32h4.59v-6.32c0-1,.52-1.52,1.52-1.52h4.56c1,0,1.52.52,1.52,1.52v19.28c0,1-.52,1.52-1.52,1.52Z"/>
    <path class="cls-5" d="M96.27,33.33l-5.29,10.06v8.51c0,1-.52,1.52-1.52,1.52h-4.56c-1,0-1.52-.52-1.52-1.52v-8.51l-5.26-10.06c-.18-.37-.27-.7-.27-1,0-.76.58-1.22,1.61-1.22h4.16c.64,0,1.13.27,1.4.91l2.25,5.11,2.13-5.08c.27-.64.76-.94,1.4-.94h4.13c1.03,0,1.64.46,1.64,1.19,0,.3-.09.64-.3,1.03Z"/>
    <path class="cls-2" d="M35.36,0c-3.89,0-7.03,3.15-7.03,7.03s3.15,7.03,7.03,7.03,7.03-3.15,7.03-7.03-3.15-7.03-7.03-7.03ZM35.36,9.91c-1.59,0-2.88-1.29-2.88-2.88s1.29-2.88,2.88-2.88,2.88,1.29,2.88,2.88-1.29,2.88-2.88,2.88Z"/>
    <g>
      <path class="cls-4" d="M42.27,59.71c-.13,0-.2.04-.39.04-.12,0-.14,0-.25,0-.02,0-.05,0-.07,0l-.18-.03s-.07,0-.09-.02c-.06-.04-.09-.08-.09-.14,0-.73.02-.66.02-1.45v-.4c0-.12,0-.18.03-.3,0-.08.06-.08.11-.08h.38c.17,0,.34-.02.5-.02.11,0,.29,0,.39,0,.12,0,.23,0,.35,0,.24.01.49,0,.73.02.24.03.57.02.81.03.15.02.31.02.46.02.05,0,.11,0,.13.04.06.07.05.14.06.24,0,.12.02.23.02.34s0,.22-.02.34v.2c0,.64.05.38.05,1.04,0,0,0,.02,0,.02-.02.06-.13.08-.26.08-.23,0-.18,0-.39,0-.07,0-.13,0-.18,0h-.04s-.07,0-.1,0c-.09,0-.13.02-.14.07-.07.19-.08.4-.08.61,0,.1.02.18.02.29,0,.04,0,.08,0,.13,0,.6-.02.97-.02,1.61v.53c0,.42,0,.85,0,1.29,0,.1,0,.19,0,.29,0,.05,0,.08,0,.12,0,.05-.02.07-.06.08-.09,0-.18.02-.27.02-.13,0-.26,0-.39,0-.16,0-.22,0-.39-.03-.15-.02-.42-.02-.45-.09-.01-.02-.03-.1-.03-.13h0v-1.06c0-.37,0-.68-.02-1.11t0-.02s0,0,0-.02c0-.77.02-1.04.02-1.97,0-.14.02-.28.02-.43v-.08s-.01-.06-.04-.07c-.07-.01-.13-.02-.17-.02Z"/>
      <path class="cls-4" d="M45.33,62.81c.04-.1.17-1,.19-1.11.02-.09.04-.17.06-.26.05-.16.07-.71.12-.86.02-.06.03-.11.03-.16.04-.27.1-.59.16-.94.02-.12.03-.25.06-.38.04-.25.1-.52.15-.79.07-.28.14-.51.21-.81,0-.04.04-.05.09-.05h.15c.07-.02.31-.03.55-.03.27,0,.54.01.62.02.06,0,.11,0,.15,0,.13,0,.29,0,.45,0,.28,0,.57.02.73.12.02.03.02.05.02.08.07.29.05.37.14.65.03.12.08.43.11.54.05.26.1.51.16.77.03.14.05.28.09.42.24,1.02.42,2.05.68,3.03.02.12.03.18.06.3v.02c.04.18.07.3.11.49,0,.01.08.45.08.46,0,0,.06.33.06.34v.02s-.09.06-.2.06c-.1,0-.23,0-.34,0h-.06c-.18,0-.53,0-.71,0h-.76c-.06,0-.1-.38-.15-.64-.05-.23-.09-.52-.1-.6-.02-.15-.04-.3-.07-.44,0-.03-.02-.06-.02-.09-.04-.28-.07-.45-.13-.73-.01-.07-.04-.11-.11-.12-.03-.01-.48-.03-.52-.03-.05,0-.11-.02-.16-.02-.06,0-.12.01-.19.02-.07,0-.07.52-.08.72,0,.15,0,.32-.02.5,0,.18,0,.36,0,.53,0,.13,0,.25-.02.35,0,.12-.01.21-.01.29-.02.19-.04.23-.17.24-.11,0-.5,0-.83.04-.1.02-.2.01-.29.02h-.2s-.08,0-.11,0c-.17,0-.22-.04-.22-.15,0-.05,0-.11.02-.19.08-.53.2-1.54.23-1.64ZM47.89,61.09c-.1-.75-.15-1.17-.25-1.92-.01-.03,0-.06-.03-.07-.03-.02-.09-.05-.14-.05h-.01s-.06,0-.06.02c-.05.26-.27,1.78-.28,2.04h0s0,.06,0,.08c0,.02.03.04.06.04h0c.07,0,.22,0,.35,0h.21c.11,0,.16-.03.13-.13Z"/>
      <path class="cls-4" d="M54.48,60.75c-.35.45-1.06.43-1.76.51h-.13s-.02.07-.02.09h0c-.02.71-.03,1.11-.04,1.81v.13c0,.23.01.5.01.74v.5s0,.1,0,.11c0,.09-.09.1-.18.1h-.76c-.14,0-.32,0-.46,0-.05,0-.1,0-.15,0-.02,0-.04-.01-.05-.02-.06-.03-.1-.06-.1-.13v-.02c0-.09,0-.19,0-.29v-.11c0-.28,0-.58,0-.86h0c0-.17,0-.33,0-.49,0-.09,0-.19,0-.28.01-.19.01-.38.02-.57,0-.15.02-.3.02-.46,0-.21,0-.41,0-.62,0-.18,0-.36,0-.53v-.07c0-.1,0-.21,0-.31v-.25c0-.57,0-1.09,0-1.66v-.31c0-.16,0-.35.09-.35h.06c.23,0,.56,0,.8-.02h.05c.19,0,.35-.02.53-.02h.46c.16,0,.31,0,.47,0,.27,0,.53.05.78.17.08.04.18.07.26.11.14.06.26.15.35.27.03.03.06.07.09.1.23.24.32.62.32,1.02,0,.08,0,.16-.01.24-.04.46-.19.92-.39,1.16-.09.11-.17.22-.27.32ZM53.41,59.21c0-.14-.07-.24-.19-.33-.09-.06-.19-.08-.3-.08-.17,0-.33,0-.5,0-.04,0-.07.02-.08.06-.05.19-.03.43-.04.62v.1c0,.06,0,.13,0,.2.05,0,.09,0,.13,0,.13-.02.25-.03.38-.05.09-.02.19-.04.27-.08.18-.07.3-.19.32-.4v-.06Z"/>
      <path class="cls-4" d="M55.1,62.81c.04-.1.17-1,.19-1.11.02-.09.04-.17.06-.26.05-.16.07-.71.12-.86.02-.06.03-.11.03-.16.04-.27.1-.59.16-.94.02-.12.03-.25.06-.38.04-.25.1-.52.15-.79.07-.28.14-.51.21-.81,0-.04.04-.05.09-.05h.15c.07-.02.31-.03.55-.03.27,0,.54.01.62.02.06,0,.11,0,.15,0,.13,0,.29,0,.45,0,.28,0,.57.02.73.12.02.03.02.05.02.08.07.29.05.37.14.65.03.12.08.43.11.54.05.26.1.51.16.77.03.14.05.28.09.42.24,1.02.42,2.05.68,3.03.02.12.03.18.06.3v.02c.04.18.07.3.11.49,0,.01.08.45.08.46,0,0,.06.33.06.34v.02s-.09.06-.2.06c-.1,0-.23,0-.34,0h-.06c-.18,0-.53,0-.71,0h-.76c-.06,0-.1-.38-.15-.64-.05-.23-.09-.52-.1-.6-.02-.15-.04-.3-.07-.44,0-.03-.02-.06-.02-.09-.04-.28-.07-.45-.13-.73-.01-.07-.04-.11-.11-.12-.03-.01-.48-.03-.52-.03-.05,0-.11-.02-.16-.02-.06,0-.12.01-.19.02-.07,0-.07.52-.08.72,0,.15,0,.32-.02.5,0,.18,0,.36,0,.53,0,.13,0,.25-.02.35,0,.12-.01.21-.01.29-.02.19-.04.23-.17.24-.11,0-.5,0-.83.04-.1.02-.2.01-.29.02h-.2s-.08,0-.11,0c-.17,0-.22-.04-.22-.15,0-.05,0-.11.02-.19.08-.53.2-1.54.23-1.64ZM57.66,61.09c-.1-.75-.15-1.17-.25-1.92-.01-.03,0-.06-.03-.07-.03-.02-.09-.05-.14-.05h-.01s-.06,0-.06.02c-.05.26-.27,1.78-.28,2.04h0s0,.06.01.08c0,.02.03.04.06.04h0c.07,0,.22,0,.35,0h.21c.11,0,.16-.03.13-.13Z"/>
      <path class="cls-4" d="M63.22,59.86c-.08.07-.12.15-.12.25,0,.03,0,.06,0,.09.03.14.08.26.21.35.17.11.34.21.52.31.31.17.62.35.9.58.24.18.47.46.61.79.09.21.14.44.14.69,0,.07,0,.13,0,.2-.06.61-.4,1.16-.89,1.39-.21.09-.39.11-.65.16-.32.06-.66.08-1.02.08-.34,0-.68,0-.99-.02-.28,0-.69-.02-.95-.1-.11-.03-.2-.05-.28-.11-.04-.03-.06-.08-.06-.12,0-.04,0-.08,0-.12,0-.19,0-.38,0-.57v-.57c0-.09,0-.17,0-.26,0-.14-.01-.23-.01-.3,0-.12.03-.13.2-.16.04-.01.16-.01.2-.01.32,0,.63.01.96.01h.23c.11,0,.28-.03.28-.03.03,0,.06-.02.09-.04.12-.07.23-.15.33-.25.08-.08.12-.18.12-.28,0-.18-.16-.34-.35-.48-.23-.16-.5-.28-.66-.34-.14-.05-.29-.09-.43-.16-.22-.11-.43-.26-.59-.46-.11-.13-.21-.28-.26-.44-.05-.14-.07-.27-.11-.44-.01-.06-.01-.11-.01-.16,0-.07,0-.14.02-.22.02-.09.04-.15.06-.24.01-.03.01-.04.02-.07.27-.54.61-.89,1.15-1.16.04-.02.07-.03.11-.05.43-.15.96-.19,1.51-.19h.55c.35,0,.79,0,1.11.06.06,0,.19,0,.23.07.07.07.09.13.11.23,0,.06,0,.12,0,.19v.42c0,.14,0,.29,0,.43,0,.54,0,.13,0,.67,0,.03,0,.07,0,.1-.01.07-.08.08-.16.08h-.2c-.08,0-.24,0-.41,0h-.15c-.11,0-.24,0-.37,0-.14,0-.27,0-.39.02-.31.04-.36,0-.57.18Z"/>
    </g>
    <g>
      <path class="cls-4" d="M80.7,60.81s.06.05.09.07c.22.12.36.31.48.52.05.09.09.18.14.27.1.2.13.41.14.63v.1c0,.21-.02.32-.03.53,0,.21-.07.41-.16.61-.11.21-.24.41-.39.59-.41.47-1.24.65-2.11.65-.52,0-1.04-.02-1.53-.03h-.09c-.08,0-.14,0-.21,0-.06,0-.11,0-.18-.03-.09-.03-.16-.07-.16-.16v-.04c0-.11.02-.27.02-.38,0-.89-.02-1.84-.02-2.76v-.05c0-.18,0-.36,0-.54,0-.63-.04-1.3-.04-1.9,0-.33.01-.63.01-1.01v-.32c0-.09.09-.14.18-.14.53,0,.19,0,.85,0h.1c.24,0,.38.02.62.03h.09c.09,0,.13,0,.22,0,.17-.01.27-.02.43-.02h.05c.18,0,.28.02.46.03h.32c.08,0,.17,0,.27.04.33.12.58.2.77.44.2.25.33.79.33,1.1,0,.8-.13,1.29-.58,1.63-.04.03-.09.05-.12.11l.04.04ZM78.2,59.47c0,.29-.02.11-.02.4v.21c0,.07,0,.14.02.21.02.06.04.07.08.07h.04c.26-.03.48-.04.7-.13.18-.07.22-.21.22-.38,0-.11-.02-.24-.03-.38,0-.12-.05-.2-.17-.23-.06-.02-.11-.05-.17-.05-.08,0-.15-.02-.23-.02-.11,0-.22.01-.32.03-.04,0-.07.02-.12.03v.24ZM78.2,62.44c0,.07.02.09.07.09h.03c.18,0,.34-.06.51-.11.06-.03.11-.07.15-.13.12-.14.16-.31.16-.52,0-.14-.02-.18-.04-.32-.02-.11-.06-.24-.17-.26-.11-.03-.22-.04-.34-.04-.08,0-.16,0-.24,0-.03,0-.06,0-.09,0-.03,0-.05.04-.05.07v.13c0,.24.01.36.01.6v.47Z"/>
      <path class="cls-4" d="M81.94,62.86c.04-.1.17-1,.19-1.11.02-.09.04-.17.06-.26.05-.16.07-.71.12-.86.02-.06.03-.11.03-.16.04-.27.1-.59.16-.94.02-.12.03-.25.06-.38.04-.25.1-.52.15-.79.07-.28.14-.51.21-.81,0-.04.04-.05.09-.05h.15c.07-.02.31-.03.55-.03.27,0,.54.01.62.02.06,0,.11,0,.15,0,.13,0,.29,0,.45,0,.28,0,.57.02.73.12.02.03.02.05.02.08.07.29.05.37.14.65.03.12.08.43.11.54.05.26.1.51.16.77.03.14.05.28.09.42.24,1.02.42,2.05.68,3.03.02.12.03.18.06.3v.02c.04.18.07.3.11.49,0,.01.08.45.08.46,0,0,.06.33.06.34v.02s-.09.06-.2.06c-.1,0-.23,0-.34,0h-.06c-.18,0-.53,0-.71,0h-.76c-.06,0-.1-.38-.15-.64-.05-.23-.09-.52-.1-.6-.02-.15-.04-.3-.07-.44,0-.03-.02-.06-.02-.09-.04-.28-.07-.45-.13-.73-.01-.07-.04-.11-.11-.12-.03-.01-.48-.03-.52-.03-.05,0-.11-.02-.16-.02-.06,0-.12.01-.19.02-.07,0-.07.52-.08.72,0,.15,0,.32-.02.5,0,.18,0,.36,0,.53,0,.13,0,.25-.02.35,0,.12-.01.21-.01.29-.02.19-.04.23-.17.24-.11,0-.5,0-.83.04-.1.02-.2.01-.29.02h-.2s-.08,0-.11,0c-.17,0-.22-.04-.22-.15,0-.05,0-.11.02-.19.08-.53.2-1.54.23-1.64ZM84.5,61.14c-.1-.75-.15-1.17-.25-1.92-.01-.03,0-.06-.03-.07-.03-.02-.09-.05-.14-.05h-.01s-.06,0-.06.02c-.05.26-.27,1.78-.28,2.04h0s0,.06,0,.08c0,.02.03.04.06.04h0c.07-.01.22-.01.35-.01h.21c.11,0,.16-.03.13-.13Z"/>
      <path class="cls-4" d="M91.66,62.67c.22.42.55.9.74,1.27.06.1.11.2.15.3.05.1.09.21.14.32,0,.02,0,.03,0,.05,0,.03,0,.05-.03.08-.02.04-.22.12-.39.12h-.03c-.12,0-.39-.02-.52-.02-.09,0-.15,0-.24,0-.1,0-.2.03-.28.03-.03,0-.05,0-.07-.02-.05-.05-.13-.25-.25-.47-.04-.08-.09-.16-.12-.23-.12-.24-.29-.48-.41-.71-.1-.18-.2-.37-.3-.55-.08-.13-.16-.26-.24-.4-.05-.08-.49-.82-.67-.93,0,.04-.01.16-.01.18,0,.2,0,.32,0,.41,0,.19,0,.23,0,.55,0,.51.01.96.01,1.49v.37c0,.12-.01.23-.12.23-.42,0-.73-.01-1.22-.01h-.18c-.11,0-.15-.04-.15-.17v-.33c.01-.99.05-1.91.05-3.07,0-.61-.01-1.2-.01-1.8v-.4c0-.21,0-.38,0-.62v-.71s0-.05,0-.08c.01-.06.03-.07.07-.07h.09s.13,0,.2,0c.23,0,.38,0,.56,0,.12,0,.23,0,.38,0,.29,0,.62,0,.94,0h.83c.66.01,1.34.01,1.67.41.2.26.32.49.43.81.04.14.05.27.05.4,0,1.01-.56,2.2-1.35,2.42-.11.03-.33.04-.45.04,0,0,0,0,0,.02,0,.1.5.7.66.97.03.06.04.08.07.13ZM90.65,59.86c.05-.08.07-.56.07-.63,0-.1-.04-.19-.13-.26-.25-.17-.58-.24-.89-.24-.22,0-.31.05-.36.08-.02,0-.02.03-.02.05h0c0,.12,0,.26,0,.4,0,.1,0,.6,0,.7,0,.08,0,.16,0,.23.05,0,.2,0,.3,0h.09c.33-.03.13,0,.54-.08.15-.03.29-.11.39-.26Z"/>
    </g>
    <path class="cls-5" d="M0,46.41c.03,2.12-.09,4.92.16,6.34l.05.39c3.76,16.5,24.7,20.61,35.38,7.91l.12-.15c2.97-4,3.79-7.61,3.86-10.64,0-.1-.05-3.31-.03-8.5-.07,0-.12.17-.18.17-2,.15-4.01.03-6.01-.17h-.05c-.42,0-.83-.01-1.25-.02-.35,0-.63.27-.63.62v8.7c-.02.17-.04.34-.06.5-2.11,8.24-12.07,11.97-18.99,6.7-4.09-3.11-4.73-7.17-4.69-11.74"/>
    <path class="cls-5" d="M7.38,51.5c0-.06,0-.13,0-.19.02-.9,1.2-1.54,2.38-1.3h0c1.65.33,3-.99,2.1-2.05l-8.31-9.93c-.99-1.18-3.47-.68-3.49.71-.06,4.23-.11,8.47-.02,12.69"/>
    <circle class="cls-5" cx="71.38" cy="60.33" r="2.3"/>
    <g>
      <path class="cls-3" d="M9.85,60.05c-.08,0-.15.02-.21.08-.02.02-.03.04-.04.06-.06.1-.09.2-.07.32.04.16.08.31.13.47.09.27.17.54.21.83.04.24.02.53-.08.79-.06.17-.16.33-.29.48-.04.04-.07.08-.12.11-.37.32-.87.46-1.28.33-.17-.06-.29-.15-.47-.26-.22-.14-.43-.31-.64-.51-.2-.19-.39-.38-.57-.55-.16-.16-.39-.39-.5-.58-.05-.08-.09-.14-.1-.22,0-.04,0-.08.03-.1.02-.03.04-.05.06-.08.1-.11.2-.23.3-.34l.31-.33c.05-.05.09-.1.14-.16.08-.08.12-.14.16-.18.07-.07.09-.06.21.02.03.02.1.08.12.1.19.17.36.35.56.53l.13.12c.06.06.18.13.18.13.02.01.04.02.07.03.11.03.22.04.33.03.09,0,.17-.04.22-.1.1-.1.09-.29.06-.47-.05-.22-.14-.44-.2-.56-.05-.11-.12-.21-.16-.33-.07-.18-.11-.39-.09-.59,0-.14.03-.28.09-.4.05-.11.11-.2.18-.32.03-.04.05-.07.08-.1.04-.04.08-.08.13-.12.06-.04.11-.07.17-.11.02-.01.03-.02.05-.03.45-.17.84-.19,1.31-.05.03.01.06.02.09.03.33.15.66.41.99.71l.32.3c.2.19.46.44.62.64.03.04.11.11.1.17,0,.08-.02.13-.06.19-.03.04-.07.07-.1.12l-.23.25c-.08.08-.15.17-.23.26-.29.32-.08.07-.37.38-.02.02-.04.04-.06.05-.04.04-.09,0-.14-.04l-.12-.11s-.15-.13-.25-.22l-.09-.08c-.06-.07-.14-.14-.21-.21-.08-.08-.16-.15-.24-.2-.2-.15-.21-.2-.43-.21Z"/>
      <path class="cls-3" d="M11.73,65.94l-.09-.04c-.14-.07-.23-.13-.37-.2l-.07-.03c-.13-.06-.39-.17-.5-.22-.09-.04-.17-.09-.25-.15-.08-.06-.15-.12-.22-.18-.05-.04-.06-.1-.04-.16,0-.03,0-.04.02-.06.06-.13.12-.26.18-.39l.44-.9c.12-.25.24-.49.35-.74.12-.29.26-.57.39-.83.2-.4.39-.79.6-1.21.14-.28.29-.58.43-.87.04-.05.08-.07.14-.04.19.09.42.25.58.33.26.13.52.26.78.39.32.16.68.32,1,.46l.07.03c.07.04.13.07.15.15.01.02-.03.11-.04.14l-.03.07c-.07.14-.12.27-.18.38-.05.1-.1.2-.17.32l-.13.27c-.03.08-.06.15-.1.23-.04.07-.14.04-.21,0-.05-.02-.1-.06-.14-.08-.24-.12-.55-.31-.83-.45l-.22-.1s-.06,0-.08.02c0,0,0,.01-.02.02l-.08.16c-.03.06-.05.1-.06.12-.01.03-.02.05-.03.08.01,0,.25.1.37.16l.42.2c.06.03.13.06.21.11.05.02.09.04.13.07.04.02.13.06.15.09.06.06.01.23-.03.31l-.05.11c-.12.24-.07.13-.21.41v.02s-.02.04-.06.05c-.01,0-.06,0-.07-.02-.36-.16-.71-.32-1.08-.5-.07-.03-.13-.04-.19-.06-.05-.01-.07,0-.09.04-.08.14-.15.28-.22.42-.02.04-.01.06.03.08.13.07.25.14.38.2l.09.05c.26.13.46.27.71.41.03.02.08.04.11.06.07.05.07.1.03.17-.04.09-.08.19-.13.28l-.22.45c-.08.19-.2.45-.29.64l-.04.08c-.04.08-.05.08-.12.08-.02,0-.04,0-.07-.01-.24-.09-.52-.22-.8-.35-.07-.04-.14-.07-.23-.1Z"/>
      <path class="cls-3" d="M14.45,65.45c.05-.07.29-.76.32-.84.03-.07.06-.13.09-.19.06-.12.16-.55.23-.66.02-.04.04-.08.05-.12.07-.21.17-.45.27-.71.03-.09.06-.19.1-.29.07-.19.16-.39.24-.6.1-.21.19-.38.29-.6.01-.03.04-.03.08-.03l.12.02c.06,0,.25.02.44.06.21.04.42.09.48.11.05,0,.08.02.12.03.1.02.23.04.36.06.22.04.45.1.56.21.01.03,0,.04,0,.07,0,.24-.02.3,0,.53,0,.1,0,.35,0,.44,0,.21,0,.42,0,.63,0,.11,0,.23,0,.34.03.84.02,1.67.07,2.49,0,.1,0,.15,0,.25v.02c0,.15,0,.25,0,.4,0,0,0,.37,0,.37,0,0,0,.27,0,.28v.02s-.08.03-.17.02c-.08-.02-.18-.04-.26-.06h-.05c-.14-.03-.42-.08-.56-.11l-.6-.12s-.02-.32-.02-.53c0-.19,0-.42.01-.49,0-.12.01-.24.01-.36,0-.03,0-.05,0-.07.01-.23.01-.36,0-.59,0-.05-.01-.09-.07-.11-.02-.01-.37-.1-.4-.1-.04-.02-.08-.03-.12-.04-.05,0-.1-.01-.15-.01s-.13.4-.17.55c-.03.12-.06.25-.09.39-.03.14-.06.28-.09.41-.03.1-.05.2-.07.27-.02.09-.04.16-.05.23-.04.15-.07.18-.17.16-.09,0-.39-.07-.66-.09-.08,0-.16-.02-.23-.03l-.16-.03s-.06,0-.09,0c-.13-.03-.17-.07-.15-.15,0-.04.03-.08.05-.15.14-.4.39-1.18.43-1.25ZM16.72,64.49c.04-.6.06-.94.1-1.54,0-.03,0-.05-.01-.06-.02-.02-.06-.05-.1-.06h0s-.05,0-.05,0c-.08.2-.48,1.36-.53,1.56h0s0,.05,0,.07c0,.02.02.04.04.04h0c.06,0,.17.03.28.05l.17.03c.09.02.13,0,.12-.08Z"/>
      <path class="cls-3" d="M21.81,63.5s-.08,0-.1,0c-.13,0-.26,0-.42,0-.06,0-.11.01-.17.02h-.34c-.14.02-.26.03-.25.11,0,.03.02.67.03.8,0,.06,0,.12.01.13,0,.04,0,.07.02.1.02,0,.03,0,.05,0h.13c.47-.03.38-.01.58-.02,0,0,.06,0,.07,0h.03c.13,0,.18,0,.33,0,.04,0,.08,0,.08.03.02.26.04.46.05.74v.15c.01.1-.01.16-.13.17-.17,0-.46.05-.67.06-.19,0-.47.03-.47.11v.02c.03.38.07.81.09,1.23l.02.34c0,.1-.03.15-.11.16-.09,0-.18.03-.26.03h-.23c-.08.01-.05.01-.13,0-.03,0-.07,0-.11,0-.08,0-.17.02-.24.02-.04,0-.11.01-.17.02h-.1s-.04,0-.06,0c-.02-.02-.03-.06-.03-.09-.01-.06-.01-.12-.02-.18-.06-1.37-.16-2.7-.26-4.03,0-.19,0-.38,0-.58v-.06c0-.09-.02-.17-.02-.26-.01-.13-.03-.25-.03-.38,0-.07.01-.14.06-.19.02-.03.04-.03.07-.04h.02c.38,0,.65,0,1.03-.02.38-.02,1.1-.13,1.48-.15h.06c.1,0,.13.02.13.11l.02.5c0,.06,0,.13,0,.19,0,.13.01.24,0,.36,0,.12.01.24.02.39,0,.07,0,.11,0,.18,0,.02-.02.03-.05.03Z"/>
      <path class="cls-3" d="M25.5,66.74c-.14.15-.44.31-.74.42l-.09.02c-.25.06-.47.06-.69,0-.42-.12-.72-.43-.95-.84-.1-.18-.19-.38-.27-.59-.11-.31-.22-.65-.32-.98-.04-.11-.07-.23-.1-.34-.04-.16-.08-.33-.11-.5-.03-.13-.04-.27-.07-.41-.1-.62-.14-1.03.05-1.47.08-.22.21-.45.47-.55.15-.06.32-.13.5-.18.31-.08.65-.11.91-.02.11.03.22.06.32.11.62.31.92.91,1.21,2.01l.04.16c.04.14.08.28.12.42.25.96.35,1.8-.04,2.44-.07.12-.16.21-.25.31ZM24.09,63.01s-.15-.05-.25-.03h-.03c-.13.06-.23.15-.28.25-.1.22-.13.46-.1.71.01.08.02.18.05.27l.02.08c.09.27.37.94.74.84.5-.13.4-.83.26-1.36-.02-.09-.06-.17-.08-.25-.02-.07-.05-.15-.09-.23-.08-.15-.13-.21-.24-.28Z"/>
      <path class="cls-3" d="M29.65,64.92c-.11.17-.35.41-.62.57l-.08.05c-.23.12-.45.17-.67.16-.44-.02-.8-.25-1.12-.6-.14-.15-.27-.33-.4-.51-.18-.27-.36-.58-.54-.88-.06-.09-.12-.21-.17-.31-.08-.15-.15-.3-.23-.46-.06-.12-.1-.25-.16-.38-.24-.58-.37-.97-.29-1.44.02-.23.1-.49.33-.65.13-.1.28-.21.44-.29.28-.15.6-.26.88-.24.11,0,.23,0,.34.04.67.16,1.1.67,1.64,1.67l.08.15c.08.12.14.25.21.38.47.87.76,1.67.53,2.38-.04.13-.1.25-.17.36ZM27.41,61.63s-.15-.02-.25.03l-.03.02c-.12.08-.19.19-.21.29-.04.24-.01.48.07.72.03.07.06.17.11.25l.04.08c.15.25.58.83.92.64.45-.24.2-.9-.06-1.38-.05-.08-.1-.15-.14-.23-.03-.06-.08-.14-.15-.2-.11-.13-.18-.18-.3-.22Z"/>
      <path class="cls-3" d="M33.53,60.33c.08.13.14.27.19.43.05.17.07.35.07.53,0,.04-.01.09-.02.13-.1.39-.28.7-.67,1.09l-.17.15c-.14.13-.26.23-.41.37l-.22.21c-.11.1-.21.21-.32.3-.08.08-.17.15-.24.19-.01.01-.06.04-.07.05-.06.05-.14,0-.21-.08l-.08-.08c-.16-.15-.33-.32-.5-.5l-.3-.32c-.12-.13-.22-.23-.36-.38l-.24-.26c-.26-.28-.47-.51-.76-.84-.43-.47-.85-.93-1.3-1.42-.1-.11-.18-.18-.28-.29-.01-.01-.03-.03-.03-.05-.02-.02,0-.05.01-.07.15-.14.31-.26.46-.4.26-.24.53-.51.81-.76.35-.32.7-.61,1.03-.81.2-.12.6-.1.8-.02.15.07.29.13.42.24.26.22.58.51.84.8.18.17.38.37.55.56.17.19.34.38.5.57.19.22.38.46.5.67ZM30.12,59.41s-.09.07-.13.11c-.02.02-.05.05-.07.08,0,.02,0,.06.03.07,0,.02.02.03.03.05.16.17.31.35.47.52.05.06.21.23.26.29l.46.5c.06.06.12.13.18.21.01.01.02.03.03.05.06.06.14.13.18.19.02.02.05.04.08.06.02-.01.06-.05.09-.07l.02-.02c.13-.19.26-.5.18-.7-.13-.36-.63-.9-.95-1.25-.25-.28-.59-.32-.86-.09Z"/>
    </g>
    <path class="cls-2" d="M27.6,29.07h-12.28c-1.21,0-1.83-.62-1.83-1.83v-14.77c0-1.21.62-1.83,1.83-1.83h5.48c1.21,0,1.83.62,1.83,1.83v9.65h4.97c1.21,0,1.83.62,1.83,1.83v3.29c0,1.21-.62,1.83-1.83,1.83Z"/>
    <path class="cls-2" d="M32.54,28.75c1.64.41,3-.08,4.74-.7.78-.28,1.5-.38,2.17-.39l.08-15.38c0-1.08-.56-1.64-1.64-1.64h-4.91c-1.08,0-1.64.56-1.64,1.64l.05,16.17c.3.08.68.18,1.15.3Z"/>
    <path class="cls-5" d="M27.72,43.97h-6.63v8.42c0,1-.52,1.52-1.52,1.52h-4.56c-1,0-1.52-.52-1.52-1.52v-19.28c0-1,.52-1.52,1.52-1.52h12.62c1,0,1.52.52,1.52,1.52v2.74c0,1-.52,1.52-1.52,1.52h-6.54v2.07h6.63c1,0,1.52.52,1.52,1.52v1.49c0,1-.52,1.52-1.52,1.52Z"/>
    <path class="cls-2" d="M57,29.01h-12.28c-1.21,0-1.83-.62-1.83-1.83v-14.77c0-1.21.62-1.83,1.83-1.83h5.48c1.21,0,1.83.62,1.83,1.83v9.65h4.97c1.21,0,1.83.62,1.83,1.83v3.29c0,1.21-.62,1.83-1.83,1.83Z"/>
    <path class="cls-4" d="M59.37,6.87c.18,1.61-.66,3.24-2.12,3.99-.03.06.02.12.03.18.17,1.07-.49,2.02-1.37,2.58-.45.29-.77.49-1.01-.13-.14-.36-.12-.82-.01-1.18.03-.09.09-.19.1-.26,0-.02.01-.03,0-.06-.56.01-1.22-.18-1.58-.64-.18-.23-.34-.55-.02-.74.29-.18.81-.36,1.14-.46.67-.2,1.43-.29,2.08.03l-.1-.95c1.1-.18,2.07-.9,2.59-1.87.07-.13.19-.37.23-.51.01-.03.03-.02.04.03Z"/>
    <path class="cls-4" d="M55.58,7.76c1.27-1.04,1.66-2.87,1.01-4.37.68.21,1.31.64,1.77,1.19.09.1.38.46.41.56.01.05.02.18.03.24.15,1.53-.99,2.97-2.53,3.15-.08-.07-.1-.17-.16-.25-.14-.2-.32-.37-.52-.51Z"/>
    <path class="cls-1" d="M59.33,6.84s-.02-.1.03-.08c.02,0,0,.09,0,.11l-.04-.03Z"/>
    <path class="cls-4" d="M55.55,12.98c-.04-.34.1-.66.27-.94.1-.15.3-.31.24-.51-.11-.44-.6-.25-.92-.24-.27,0-.61-.04-.85-.15-.02-.01-.13-.06-.12-.08.57-.22,1.31-.48,1.92-.3.41.12.53.35.49.77-.06.59-.54,1.16-1.03,1.46Z"/>
    <path class="cls-4" d="M55.66,3.22c-.52-.05-1.05.07-1.54.25-1.83.88-3.65,1.8-5.49,2.66-.71.01-1.11-.34-1.23-1.04-.04-.25.04-.53-.26-.65-.2-.08-.45.06-.49.27-.07.43.16,1.08.4,1.43-.6-.24-.96-.84-1.23-1.4-.02-.05-.02-.1-.05-.15-.22-.36-.79-.14-.67.29.23.82,1.08,1.77,1.89,2.05.53.18,1.11.14,1.65.01.58.91,1.67,1.49,2.75,1.45,1.04-.05,1.84-.69,2.86-.84.31-.04.34.03.63-.17,1.34-.92,1.68-2.82.76-4.15ZM51.91,6.81c-.48.16-.85-.56-.4-.87.61-.41,1.15.62.4.87Z"/>
    <path class="cls-5" d="M39.46,30.65c-.34,0-.74.05-1.18.21-1.45.52-2.92,1.04-4.58,1.04-.62,0-1.26-.07-1.94-.24-.17-.04-.31-.08-.46-.12l.12,18.81c2.05.89,1-.18,2.08-.18,0,0,4.95.19,6.08.17l-.09-19.54c0-.05-.02-.09-.02-.14Z"/>
  </g>
</svg>