<?xml version="1.0" encoding="UTF-8"?>
<svg id="Layer_2" data-name="Layer 2" xmlns="http://www.w3.org/2000/svg" viewBox="0 0 14.3 10.68">
  <defs>
    <style>
      .cls-1 {
        fill: #f26454;
      }

      .cls-2 {
        fill: #ee3424;
      }
    </style>
  </defs>
  <g id="Layer_1-2" data-name="Layer 1">
    <path class="cls-2" d="M14.28,3.66c.18,1.61-.66,3.24-2.12,3.99-.03.06.02.12.03.18.17,1.07-.49,2.02-1.37,2.58-.45.29-.77.49-1.01-.13-.14-.36-.12-.82-.01-1.18.03-.09.09-.19.1-.26,0-.02.01-.03,0-.06-.56.01-1.22-.18-1.58-.64-.18-.23-.34-.55-.02-.74.29-.18.81-.36,1.14-.46.67-.2,1.43-.29,2.08.03l-.1-.95c1.1-.18,2.07-.9,2.59-1.87.07-.13.19-.37.23-.51.01-.03.03-.02.04.03Z"/>
    <path class="cls-2" d="M10.49,4.55c1.27-1.04,1.66-2.87,1.01-4.37.68.21,1.31.64,1.77,1.19.09.1.38.46.41.56.01.05.02.18.03.24.15,1.53-.99,2.97-2.53,3.15-.08-.07-.1-.17-.16-.25-.14-.2-.32-.37-.52-.51Z"/>
    <path class="cls-1" d="M14.24,3.63s-.02-.1.03-.08c.02,0,0,.09,0,.11l-.04-.03Z"/>
    <path class="cls-2" d="M10.46,9.76c-.04-.34.1-.66.27-.94.1-.15.3-.31.24-.51-.11-.44-.6-.25-.92-.24-.27,0-.61-.04-.85-.15-.02-.01-.13-.06-.12-.08.57-.22,1.31-.48,1.92-.3.41.12.53.35.49.77-.06.59-.54,1.16-1.03,1.46Z"/>
    <path class="cls-2" d="M10.57.01c-.52-.05-1.05.07-1.54.25-1.83.88-3.65,1.8-5.49,2.66-.71.01-1.11-.34-1.23-1.04-.04-.25.04-.53-.26-.65-.2-.08-.45.06-.49.27-.07.43.16,1.08.4,1.43-.6-.24-.96-.84-1.23-1.4-.02-.05-.02-.1-.05-.15C.47,1.02-.1,1.24.02,1.67c.23.82,1.08,1.77,1.89,2.05.53.18,1.11.14,1.65.01.58.91,1.67,1.49,2.75,1.45,1.04-.05,1.84-.69,2.86-.84.31-.04.34.03.63-.17,1.34-.92,1.68-2.82.76-4.15ZM6.82,3.6c-.48.16-.85-.56-.4-.87.61-.41,1.15.62.4.87Z"/>
  </g>
</svg>