<svg xmlns="http://www.w3.org/2000/svg" xmlns:xlink="http://www.w3.org/1999/xlink" width="308" zoomAndPan="magnify" viewBox="0 0 230.87999 163.5" height="218" preserveAspectRatio="xMidYMid meet" version="1.0"><defs><clipPath id="e0e301a7d9"><path d="M 0.292969 67 L 229.839844 67 L 229.839844 96 L 0.292969 96 Z M 0.292969 67 " clip-rule="nonzero"/></clipPath><clipPath id="4feff2f276"><path d="M 0.292969 134 L 229.839844 134 L 229.839844 163 L 0.292969 163 Z M 0.292969 134 " clip-rule="nonzero"/></clipPath><clipPath id="78ba1dce6f"><path d="M 0.292969 0 L 229.839844 0 L 229.839844 29 L 0.292969 29 Z M 0.292969 0 " clip-rule="nonzero"/></clipPath></defs><g clip-path="url(#e0e301a7d9)"><path fill="#dd2c00" d="M 215.625 67.039062 L 14.648438 67.039062 C 6.71875 67.039062 0.292969 73.464844 0.292969 81.394531 C 0.292969 89.324219 6.71875 95.75 14.648438 95.75 L 215.625 95.75 C 223.554688 95.75 229.980469 89.324219 229.980469 81.394531 C 229.980469 73.464844 223.554688 67.039062 215.625 67.039062 Z M 215.625 67.039062 " fill-opacity="1" fill-rule="nonzero"/></g><g clip-path="url(#4feff2f276)"><path fill="#dd2c00" d="M 215.625 134.03125 L 14.648438 134.03125 C 6.71875 134.03125 0.292969 140.457031 0.292969 148.386719 C 0.292969 156.316406 6.71875 162.742188 14.648438 162.742188 L 215.625 162.742188 C 223.554688 162.742188 229.980469 156.316406 229.980469 148.386719 C 229.980469 140.457031 223.554688 134.03125 215.625 134.03125 Z M 215.625 134.03125 " fill-opacity="1" fill-rule="nonzero"/></g><g clip-path="url(#78ba1dce6f)"><path fill="#dd2c00" d="M 14.648438 28.757812 L 215.625 28.757812 C 223.554688 28.757812 229.980469 22.332031 229.980469 14.402344 C 229.980469 6.472656 223.554688 0.046875 215.625 0.046875 L 14.648438 0.046875 C 6.71875 0.046875 0.292969 6.472656 0.292969 14.402344 C 0.292969 22.332031 6.71875 28.757812 14.648438 28.757812 Z M 14.648438 28.757812 " fill-opacity="1" fill-rule="nonzero"/></g></svg>